<?xml version="1.0" encoding="UTF-8" standalone="no"?>
<svg id="Line" xmlns="http://www.w3.org/2000/svg" viewBox="0 0 64 64">
  <title>1</title>
  <path fill="#FF8F00" d="M57.37256,17.07617a3.60935,3.60935,0,0,0-2.54737-1.05663h-14.25V10a5.80809,5.80809,0,0,0-5.58008-6H11.15527A5.80808,5.80808,0,0,0,5.5752,10V54a5.80808,5.80808,0,0,0,5.58007,6H34.99512a5.80809,5.80809,0,0,0,5.58008-6V44.01953h14.25a3.604,3.604,0,0,0,3.5996-3.59961V19.62012A3.62467,3.62467,0,0,0,57.37256,17.07617Zm-.94776,2.54395v20.7998a1.577,1.577,0,0,1-.07946.47254L44.67743,31.68207C44.7392,31.78332,56.5167,19.14838,56.4248,19.62012ZM25.20886,42.01953l11.27637-8.9013a4.87618,4.87618,0,0,0,6.783-.00007l11.27637,8.90137Zm-1.80353-1.12488a1.57754,1.57754,0,0,1-.08013-.47473c.01439-.1189-.0239-20.81088.01133-20.912L35.076,31.68207ZM55.05127,18.04242,41.96436,31.61426a2.96781,2.96781,0,0,1-4.1753,0L24.70184,18.04211C25.54282,17.99659,54.20242,17.99884,55.05127,18.04242ZM29.35193,6c-.7208,1.08255-1.27846,3.10409-2.89782,3.04l-6.75782,0C18.0748,9.10359,17.51749,7.07961,16.7982,6ZM38.5752,54a3.81157,3.81157,0,0,1-3.58008,4H11.15527A3.81157,3.81157,0,0,1,7.5752,54V10a3.81157,3.81157,0,0,1,3.58007-4H14.495l1.72814,3.02441A4.00947,4.00947,0,0,0,19.69629,11.04H26.4541a4.00868,4.00868,0,0,0,3.47266-2.01563L31.65533,6h3.33979a3.81157,3.81157,0,0,1,3.58008,4v6.01953H24.9248a3.60416,3.60416,0,0,0-3.5996,3.60059v20.7998a3.604,3.604,0,0,0,3.5996,3.59961H38.5752Z"/>
  <path fill="#FF8F00" d="M20.0752,52a3.00018,3.00018,0,0,0,6-.00009A3.00018,3.00018,0,0,0,20.0752,52Zm4,0a1.00019,1.00019,0,0,1-2-.00006A1.00019,1.00019,0,0,1,24.0752,52Z"/>
</svg>