<?xml version="1.0" encoding="UTF-8" standalone="no"?> <svg width="64" height="64" viewBox="0 0 64 64" fill="none" xmlns="http://www.w3.org/2000/svg">
<path d="M28.122 35.464L25.879 37.707C25.5993 37.9849 25.3776 38.3156 25.2267 38.6798C25.0758 39.0441 24.9988 39.4347 25 39.829V41C25 41.2652 25.1054 41.5196 25.2929 41.7071C25.4804 41.8946 25.7348 42 26 42H30C30.2652 42 30.5196 41.8946 30.7071 41.7071C30.8947 41.5196 31 41.2652 31 41C31 40.7348 30.8947 40.4804 30.7071 40.2929C30.5196 40.1054 30.2652 40 30 40H27V39.829C26.9999 39.6975 27.0257 39.5673 27.076 39.4458C27.1263 39.3243 27.2 39.214 27.293 39.121L29.536 36.878C30.0017 36.4149 30.3708 35.8639 30.6221 35.2572C30.8734 34.6504 31.0019 33.9998 31 33.343V33C31 32.2044 30.6839 31.4413 30.1213 30.8787C29.5587 30.3161 28.7957 30 28 30C27.2044 30 26.4413 30.3161 25.8787 30.8787C25.3161 31.4413 25 32.2044 25 33V34C25 34.2652 25.1054 34.5196 25.2929 34.7071C25.4804 34.8946 25.7348 35 26 35C26.2652 35 26.5196 34.8946 26.7071 34.7071C26.8947 34.5196 27 34.2652 27 34V33C27 32.7348 27.1054 32.4804 27.2929 32.2929C27.4804 32.1054 27.7348 32 28 32C28.2652 32 28.5196 32.1054 28.7071 32.2929C28.8947 32.4804 29 32.7348 29 33V33.343C28.9979 34.138 28.6824 34.9001 28.122 35.464Z" fill="#FF8F00"/>
<path d="M52.98 20.67L53.92 19.74C54.4819 19.1755 54.7974 18.4115 54.7974 17.615C54.7974 16.8185 54.4819 16.0545 53.92 15.49L52.51 14.08C51.9455 13.5181 51.1815 13.2026 50.385 13.2026C49.5885 13.2026 48.8245 13.5181 48.26 14.08L47.33 15.02C43.9874 12.5612 40.1007 10.9454 36 10.31V8H38C38.7957 8 39.5587 7.68393 40.1213 7.12132C40.6839 6.55871 41 5.79565 41 5C41 4.20435 40.6839 3.44129 40.1213 2.87868C39.5587 2.31607 38.7957 2 38 2H26C25.2044 2 24.4413 2.31607 23.8787 2.87868C23.3161 3.44129 23 4.20435 23 5C23 5.79565 23.3161 6.55871 23.8787 7.12132C24.4413 7.68393 25.2044 8 26 8H28V10.31C22.3861 11.1759 17.2096 13.8542 13.2598 17.9364C9.31003 22.0186 6.80387 27.2807 6.12357 32.92C5.44326 38.5594 6.62615 44.2665 9.49182 49.1709C12.3575 54.0753 16.7486 57.9077 21.9955 60.0838C27.2424 62.2599 33.0571 62.66 38.5526 61.2233C44.0482 59.7866 48.9229 56.5918 52.4335 52.1262C55.944 47.6606 57.8976 42.1694 57.9963 36.49C58.0949 30.8106 56.3333 25.2548 52.98 20.67V20.67ZM49.68 15.49C49.8714 15.3116 50.1233 15.2124 50.385 15.2124C50.6467 15.2124 50.8986 15.3116 51.09 15.49L52.51 16.91C52.6963 17.0974 52.8008 17.3508 52.8008 17.615C52.8008 17.8792 52.6963 18.1326 52.51 18.32L51.73 19.1C50.8632 18.0832 49.9169 17.1368 48.9 16.27L49.68 15.49ZM26 6C25.7348 6 25.4804 5.89464 25.2929 5.70711C25.1054 5.51957 25 5.26522 25 5C25 4.73478 25.1054 4.48043 25.2929 4.29289C25.4804 4.10536 25.7348 4 26 4H38C38.2652 4 38.5196 4.10536 38.7071 4.29289C38.8947 4.48043 39 4.73478 39 5C39 5.26522 38.8947 5.51957 38.7071 5.70711C38.5196 5.89464 38.2652 6 38 6H26ZM34 8V10.08C33.34 10.03 32.67 10 32 10C31.33 10 30.66 10.03 30 10.08V8H34ZM32 60C27.2533 60 22.6131 58.5924 18.6663 55.9553C14.7195 53.3181 11.6434 49.5698 9.8269 45.1844C8.0104 40.799 7.53512 35.9734 8.46116 31.3178C9.38721 26.6623 11.673 22.3859 15.0294 19.0294C18.3859 15.673 22.6623 13.3872 27.3178 12.4612C31.9734 11.5351 36.799 12.0104 41.1844 13.8269C45.5698 15.6434 49.3181 18.7195 51.9553 22.6663C54.5924 26.6131 56 31.2532 56 36C55.9915 42.3626 53.4603 48.4622 48.9612 52.9612C44.4622 57.4603 38.3626 59.9915 32 60V60Z" fill="#FF8F00"/>
<path d="M41 39C41 39.2652 40.8946 39.5196 40.7071 39.7071C40.5196 39.8946 40.2652 40 40 40H39V41C39 41.2652 38.8946 41.5196 38.7071 41.7071C38.5196 41.8946 38.2652 42 38 42C37.7348 42 37.4804 41.8946 37.2929 41.7071C37.1054 41.5196 37 41.2652 37 41V40H34C33.8578 40.0011 33.7171 39.9712 33.5876 39.9125C33.4581 39.8538 33.3429 39.7676 33.25 39.66C33.1556 39.5553 33.0852 39.4313 33.0438 39.2965C33.0023 39.1618 32.9908 39.0196 33.01 38.88L34.01 30.88C34.0164 30.7426 34.051 30.6079 34.1118 30.4845C34.1726 30.3611 34.2582 30.2516 34.3633 30.1628C34.4683 30.0739 34.5906 30.0077 34.7224 29.9683C34.8542 29.9289 34.9927 29.9171 35.1293 29.9336C35.2658 29.9502 35.3975 29.9948 35.5161 30.0645C35.6346 30.1343 35.7375 30.2278 35.8183 30.3391C35.8991 30.4505 35.9561 30.5773 35.9856 30.7117C36.0151 30.846 36.0166 30.985 35.99 31.12L35.13 38H37V31C37 30.7348 37.1054 30.4804 37.2929 30.2929C37.4804 30.1054 37.7348 30 38 30C38.2652 30 38.5196 30.1054 38.7071 30.2929C38.8946 30.4804 39 30.7348 39 31V38H40C40.2652 38 40.5196 38.1054 40.7071 38.2929C40.8946 38.4804 41 38.7348 41 39Z" fill="#FF8F00"/>
<path d="M32 18C27.2278 18.0056 22.6527 19.9038 19.2782 23.2782C15.9038 26.6527 14.0056 31.2278 14 36C14 36.358 14.01 36.715 14.031 37.068C14.0465 37.3332 14.1668 37.5814 14.3653 37.758C14.5638 37.9345 14.8243 38.025 15.0895 38.0095C15.3547 37.994 15.6029 37.8737 15.7795 37.6752C15.956 37.4767 16.0465 37.2162 16.031 36.951C16.009 36.637 16 36.319 16 36C15.9995 32.4103 17.2061 28.9246 19.4259 26.1035C21.6458 23.2824 24.7498 21.2897 28.239 20.4459C31.7281 19.6021 35.3997 19.9561 38.6633 21.4511C41.927 22.9461 44.5931 25.4951 46.2329 28.6884C47.8728 31.8817 48.3912 35.5337 47.7047 39.0572C47.0183 42.5807 45.1669 45.771 42.4482 48.1151C39.7295 50.4593 36.3015 51.8211 32.7153 51.9816C29.1292 52.1421 25.5932 51.0919 22.676 49H24C24.2652 49 24.5196 48.8946 24.7071 48.7071C24.8946 48.5196 25 48.2652 25 48C25 47.7348 24.8946 47.4804 24.7071 47.2929C24.5196 47.1054 24.2652 47 24 47H20C19.7348 47 19.4804 47.1054 19.2929 47.2929C19.1054 47.4804 19 47.7348 19 48V52C19 52.2652 19.1054 52.5196 19.2929 52.7071C19.4804 52.8946 19.7348 53 20 53C20.2652 53 20.5196 52.8946 20.7071 52.7071C20.8946 52.5196 21 52.2652 21 52V50.226C23.2644 51.9773 25.914 53.163 28.7287 53.6847C31.5433 54.2064 34.4418 54.049 37.1835 53.2255C39.9251 52.4021 42.4307 50.9364 44.4921 48.9502C46.5535 46.964 48.1113 44.5146 49.036 41.8054C49.9608 39.0963 50.2258 36.2056 49.809 33.3735C49.3923 30.5414 48.3058 27.8496 46.6399 25.5217C44.9739 23.1938 42.7766 21.297 40.2304 19.9888C37.6842 18.6806 34.8626 17.9988 32 18Z" fill="#FF8F00"/>
<path d="M16.7 40.7C16.6222 40.4464 16.4468 40.2342 16.2125 40.11C15.9781 39.9857 15.704 39.9597 15.4505 40.0375C15.197 40.1153 14.9847 40.2907 14.8605 40.525C14.7362 40.7594 14.7102 41.0334 14.788 41.287C14.886 41.609 14.9933 41.9267 15.11 42.24C15.1546 42.3644 15.2234 42.4787 15.3124 42.5763C15.4014 42.674 15.5089 42.753 15.6287 42.8089C15.7484 42.8647 15.8781 42.8963 16.0101 42.9017C16.1421 42.9072 16.2739 42.8864 16.3979 42.8406C16.5218 42.7948 16.6355 42.7249 16.7322 42.635C16.829 42.545 16.907 42.4367 16.9617 42.3164C17.0164 42.1962 17.0467 42.0662 17.0509 41.9342C17.055 41.8021 17.033 41.6705 16.986 41.547C16.8847 41.2683 16.7893 40.986 16.7 40.7Z" fill="#FF8F00"/>
<path d="M55.627 13.373C55.8922 13.3729 56.1465 13.2675 56.334 13.08L57.874 11.542C57.9669 11.4491 58.0406 11.3388 58.0909 11.2174C58.1412 11.096 58.1671 10.9659 58.1671 10.8345C58.1671 10.7031 58.1412 10.573 58.0909 10.4516C58.0406 10.3302 57.9669 10.2199 57.874 10.127C57.7811 10.0341 57.6708 9.96038 57.5494 9.9101C57.428 9.85982 57.2979 9.83394 57.1665 9.83394C57.0351 9.83394 56.905 9.85982 56.7836 9.9101C56.6622 9.96038 56.5519 10.0341 56.459 10.127L54.92 11.665C54.7799 11.8048 54.6843 11.983 54.6456 12.1772C54.6068 12.3713 54.6265 12.5726 54.7023 12.7555C54.778 12.9384 54.9063 13.0947 55.0709 13.2046C55.2355 13.3145 55.4291 13.3732 55.627 13.373V13.373Z" fill="#FF8F00"/>
<path d="M51 7.866C51 7.31371 50.5523 6.866 50 6.866C49.4477 6.866 49 7.31371 49 7.866V10.042C49 10.5943 49.4477 11.042 50 11.042C50.5523 11.042 51 10.5943 51 10.042V7.866Z" fill="#FF8F00"/>
<path d="M60.135 17H57.958C57.6928 17 57.4384 17.1054 57.2509 17.2929C57.0634 17.4804 56.958 17.7348 56.958 18C56.958 18.2652 57.0634 18.5196 57.2509 18.7071C57.4384 18.8946 57.6928 19 57.958 19H60.134C60.3992 19 60.6536 18.8946 60.8411 18.7071C61.0287 18.5196 61.134 18.2652 61.134 18C61.134 17.7348 61.0287 17.4804 60.8411 17.2929C60.6536 17.1054 60.3992 17 60.134 17H60.135Z" fill="#FF8F00"/>
</svg>
