<?xml version="1.0" encoding="UTF-8"?>
<!DOCTYPE svg PUBLIC "-//W3C//DTD SVG 1.1//EN" "http://www.w3.org/Graphics/SVG/1.1/DTD/svg11.dtd">
<!-- Creator: CorelDRAW -->
<svg xmlns="http://www.w3.org/2000/svg" xml:space="preserve" width="1.70666in" height="1.70666in" version="1.1" style="shape-rendering:geometricPrecision; text-rendering:geometricPrecision; image-rendering:optimizeQuality; fill-rule:evenodd; clip-rule:evenodd"
viewBox="0 0 1707 1707"
 xmlns:xlink="http://www.w3.org/1999/xlink">
 <defs>
  <style type="text/css">
   <![CDATA[
    .str0 {stroke:#FF8F00;stroke-width:53.3346;stroke-linecap:round;stroke-linejoin:round}
    .fil0 {fill:none}
   ]]>
  </style>
 </defs>
 <g id="Layer_x0020_1">
  <metadata id="CorelCorpID_0Corel-Layer"/>
  <g id="_317604744">
   <path class="fil0 str0" d="M461 1093c155,-288 511,-274 650,25"/>
   <path class="fil0 str0" d="M1000 970c163,-302 543,-253 644,20 71,190 31,502 -72,669"/>
   <path class="fil0 str0" d="M1572 1659c-260,0 -460,-127 -460,-127 0,0 -309,133 -547,70 -239,-64 -402,-170 -503,-269 -53,-52 -31,-180 -31,-180l215 -806 484 -299 185 230 -185 242 -107 -102 -126 31 64 107 0 411"/>
   <path class="fil0 str0" d="M346 1295c104,60 249,125 417,147"/>
   <path class="fil0 str0" d="M1320 1205c68,38 153,79 251,108"/>
   <line class="fil0 str0" x1="1321" y1="391" x2="1321" y2= "540" />
   <line class="fil0 str0" x1="1588" y1="434" x2="1483" y2= "540" />
   <line class="fil0 str0" x1="1053" y1="434" x2="1159" y2= "540" />
  </g>
 </g>
</svg>
